<svg width="208" height="329" viewBox="0 0 208 329" fill="none" xmlns="http://www.w3.org/2000/svg">
<g filter="url(#filter0_ddd_34_265)">
<path d="M14 27C14 18.1634 21.1634 11 30 11H178C186.837 11 194 18.1634 194 27V295C194 303.837 186.837 311 178 311H30C21.1634 311 14 303.837 14 295V27Z" fill="#121212" fill-opacity="0.8"/>
<path d="M14 27C14 18.1634 21.1634 11 30 11H178C186.837 11 194 18.1634 194 27V295C194 303.837 186.837 311 178 311H30C21.1634 311 14 303.837 14 295V27Z" fill="white" fill-opacity="0.12"/>
</g>
<defs>
<filter id="filter0_ddd_34_265" x="0" y="0" width="208" height="329" filterUnits="userSpaceOnUse" color-interpolation-filters="sRGB">
<feFlood flood-opacity="0" result="BackgroundImageFix"/>
<feColorMatrix in="SourceAlpha" type="matrix" values="0 0 0 0 0 0 0 0 0 0 0 0 0 0 0 0 0 0 127 0" result="hardAlpha"/>
<feOffset dy="5"/>
<feGaussianBlur stdDeviation="2.5"/>
<feColorMatrix type="matrix" values="0 0 0 0 0 0 0 0 0 0 0 0 0 0 0 0 0 0 0.2 0"/>
<feBlend mode="normal" in2="BackgroundImageFix" result="effect1_dropShadow_34_265"/>
<feColorMatrix in="SourceAlpha" type="matrix" values="0 0 0 0 0 0 0 0 0 0 0 0 0 0 0 0 0 0 127 0" result="hardAlpha"/>
<feOffset dy="3"/>
<feGaussianBlur stdDeviation="7"/>
<feColorMatrix type="matrix" values="0 0 0 0 0 0 0 0 0 0 0 0 0 0 0 0 0 0 0.12 0"/>
<feBlend mode="normal" in2="effect1_dropShadow_34_265" result="effect2_dropShadow_34_265"/>
<feColorMatrix in="SourceAlpha" type="matrix" values="0 0 0 0 0 0 0 0 0 0 0 0 0 0 0 0 0 0 127 0" result="hardAlpha"/>
<feOffset dy="8"/>
<feGaussianBlur stdDeviation="5"/>
<feColorMatrix type="matrix" values="0 0 0 0 0 0 0 0 0 0 0 0 0 0 0 0 0 0 0.14 0"/>
<feBlend mode="normal" in2="effect2_dropShadow_34_265" result="effect3_dropShadow_34_265"/>
<feBlend mode="normal" in="SourceGraphic" in2="effect3_dropShadow_34_265" result="shape"/>
</filter>
</defs>
</svg>
